<svg width="128" height="128" viewBox="0 0 128 128" fill="none" xmlns="http://www.w3.org/2000/svg">
    <path d="M104 16H24C19.5817 16 16 19.5817 16 24V104C16 108.418 19.5817 112 24 112H104C108.418 112 112 108.418 112 104V24C112 19.5817 108.418 16 104 16Z" fill="white" stroke="#E5E9F0" stroke-width="2"/>
    <g filter="url(#filter0_dd_22_207)">
        <path d="M98 46H30C26.6863 46 24 48.6863 24 52V76C24 79.3137 26.6863 82 30 82H98C101.314 82 104 79.3137 104 76V52C104 48.6863 101.314 46 98 46Z" fill="url(#paint0_linear_22_207)"/>
    </g>
    <path d="M54.2784 62.4375H51.7898C51.7443 62.1155 51.6515 61.8295 51.5114 61.5795C51.3712 61.3258 51.1913 61.1098 50.9716 60.9318C50.7519 60.7538 50.4981 60.6174 50.2102 60.5227C49.9261 60.428 49.6174 60.3807 49.2841 60.3807C48.6818 60.3807 48.1572 60.5303 47.7102 60.8295C47.2633 61.125 46.9167 61.5568 46.6705 62.125C46.4242 62.6894 46.3011 63.375 46.3011 64.1818C46.3011 65.0114 46.4242 65.7083 46.6705 66.2727C46.9205 66.8371 47.2689 67.2633 47.7159 67.5511C48.1629 67.839 48.6799 67.983 49.267 67.983C49.5966 67.983 49.9015 67.9394 50.1818 67.8523C50.4659 67.7652 50.7178 67.6383 50.9375 67.4716C51.1572 67.3011 51.339 67.0947 51.483 66.8523C51.6307 66.6098 51.733 66.3333 51.7898 66.0227L54.2784 66.0341C54.214 66.5682 54.053 67.0833 53.7955 67.5795C53.5417 68.072 53.1989 68.5133 52.767 68.9034C52.339 69.2898 51.8277 69.5966 51.233 69.8239C50.642 70.0473 49.9735 70.1591 49.2273 70.1591C48.1894 70.1591 47.2614 69.9242 46.4432 69.4545C45.6288 68.9848 44.9848 68.3049 44.5114 67.4148C44.0417 66.5246 43.8068 65.447 43.8068 64.1818C43.8068 62.9129 44.0455 61.8333 44.5227 60.9432C45 60.053 45.6477 59.375 46.4659 58.9091C47.2841 58.4394 48.2045 58.2045 49.2273 58.2045C49.9015 58.2045 50.5265 58.2992 51.1023 58.4886C51.6818 58.678 52.1951 58.9545 52.642 59.3182C53.089 59.678 53.4527 60.1193 53.733 60.642C54.017 61.1648 54.1989 61.7633 54.2784 62.4375ZM58.4858 70.1648C57.929 70.1648 57.4328 70.0682 56.9972 69.875C56.5616 69.678 56.2169 69.3883 55.9631 69.0057C55.7131 68.6193 55.5881 68.1383 55.5881 67.5625C55.5881 67.0777 55.6771 66.6705 55.8551 66.3409C56.0331 66.0114 56.2756 65.7462 56.5824 65.5455C56.8892 65.3447 57.2377 65.1932 57.6278 65.0909C58.0218 64.9886 58.4347 64.9167 58.8665 64.875C59.3741 64.822 59.7831 64.7727 60.0938 64.7273C60.4044 64.678 60.6297 64.6061 60.7699 64.5114C60.91 64.4167 60.9801 64.2765 60.9801 64.0909V64.0568C60.9801 63.697 60.8665 63.4186 60.6392 63.2216C60.4157 63.0246 60.0975 62.9261 59.6847 62.9261C59.2491 62.9261 58.9025 63.0227 58.6449 63.2159C58.3873 63.4053 58.2169 63.6439 58.1335 63.9318L55.8949 63.75C56.0085 63.2197 56.232 62.7614 56.5653 62.375C56.8987 61.9848 57.3286 61.6856 57.8551 61.4773C58.3854 61.2652 58.9991 61.1591 59.696 61.1591C60.1809 61.1591 60.6449 61.2159 61.0881 61.3295C61.535 61.4432 61.9309 61.6193 62.2756 61.858C62.6241 62.0966 62.8987 62.4034 63.0994 62.7784C63.3002 63.1496 63.4006 63.5947 63.4006 64.1136V70H61.1051V68.7898H61.0369C60.8968 69.0625 60.7093 69.303 60.4744 69.5114C60.2396 69.7159 59.9574 69.8769 59.6278 69.9943C59.2983 70.108 58.9176 70.1648 58.4858 70.1648ZM59.179 68.4943C59.535 68.4943 59.8494 68.4242 60.1222 68.2841C60.3949 68.1402 60.6089 67.947 60.7642 67.7045C60.9195 67.4621 60.9972 67.1875 60.9972 66.8807V65.9545C60.9214 66.0038 60.8172 66.0492 60.6847 66.0909C60.5559 66.1288 60.41 66.1648 60.2472 66.1989C60.0843 66.2292 59.9214 66.2576 59.7585 66.2841C59.5956 66.3068 59.4479 66.3277 59.3153 66.3466C59.0313 66.3883 58.7831 66.4545 58.571 66.5455C58.3589 66.6364 58.1941 66.7595 58.0767 66.9148C57.9593 67.0663 57.9006 67.2557 57.9006 67.483C57.9006 67.8125 58.0199 68.0644 58.2585 68.2386C58.5009 68.4091 58.8078 68.4943 59.179 68.4943ZM65.2784 70V61.2727H67.625V62.7955H67.7159C67.875 62.2538 68.142 61.8447 68.517 61.5682C68.892 61.2879 69.3239 61.1477 69.8125 61.1477C69.9337 61.1477 70.0644 61.1553 70.2045 61.1705C70.3447 61.1856 70.4678 61.2064 70.5739 61.233V63.3807C70.4602 63.3466 70.303 63.3163 70.1023 63.2898C69.9015 63.2633 69.7178 63.25 69.5511 63.25C69.1951 63.25 68.8769 63.3277 68.5966 63.483C68.3201 63.6345 68.1004 63.8466 67.9375 64.1193C67.7784 64.392 67.6989 64.7064 67.6989 65.0625V70H65.2784ZM74.6349 70.142C73.9721 70.142 73.3717 69.9716 72.8338 69.6307C72.2997 69.286 71.8755 68.7803 71.5611 68.1136C71.2505 67.4432 71.0952 66.6212 71.0952 65.6477C71.0952 64.6477 71.2562 63.8163 71.5781 63.1534C71.9001 62.4867 72.3281 61.9886 72.8622 61.6591C73.4001 61.3258 73.9891 61.1591 74.6293 61.1591C75.1179 61.1591 75.5251 61.2424 75.8509 61.4091C76.1804 61.572 76.4455 61.7765 76.6463 62.0227C76.8509 62.2652 77.0062 62.5038 77.1122 62.7386H77.1861V58.3636H79.6009V70H77.2145V68.6023H77.1122C76.9986 68.8447 76.8376 69.0852 76.6293 69.3239C76.4247 69.5587 76.1577 69.7538 75.8281 69.9091C75.5024 70.0644 75.1046 70.142 74.6349 70.142ZM75.402 68.2159C75.7921 68.2159 76.1217 68.1098 76.3906 67.8977C76.6634 67.6818 76.8717 67.3807 77.0156 66.9943C77.1634 66.608 77.2372 66.1553 77.2372 65.6364C77.2372 65.1174 77.1652 64.6667 77.0213 64.2841C76.8774 63.9015 76.669 63.6061 76.3963 63.3977C76.1236 63.1894 75.7921 63.0852 75.402 63.0852C75.0043 63.0852 74.669 63.1932 74.3963 63.4091C74.1236 63.625 73.9171 63.9242 73.777 64.3068C73.6368 64.6894 73.5668 65.1326 73.5668 65.6364C73.5668 66.1439 73.6368 66.5928 73.777 66.983C73.9209 67.3693 74.1274 67.6723 74.3963 67.892C74.669 68.108 75.0043 68.2159 75.402 68.2159Z" fill="url(#paint1_linear_22_207)"/>
    <defs>
        <linearGradient id="paint0_linear_22_207" x1="24" y1="46" x2="2718.39" y2="6033.53" gradientUnits="userSpaceOnUse">
            <stop stop-color="#A3B8FF"/>
            <stop offset="1" stop-color="#8FA3E0"/>
        </linearGradient>
        <linearGradient id="paint1_linear_22_207" x1="93.034" y1="65.625" x2="95.1627" y2="87.7416" gradientUnits="userSpaceOnUse">
            <stop stop-color="white"/>
            <stop offset="1" stop-color="#EDD0EA"/>
        </linearGradient>
    </defs>
</svg>
