<svg width="256" height="256" viewBox="0 0 256 256" fill="none" xmlns="http://www.w3.org/2000/svg">
    <rect x="53" y="99" width="150" height="79" rx="15" fill="url(#paint0_linear_3_40)"/>
    <path d="M81.2784 114.438H78.7898C78.7443 114.116 78.6515 113.83 78.5114 113.58C78.3712 113.326 78.1913 113.11 77.9716 112.932C77.7519 112.754 77.4981 112.617 77.2102 112.523C76.9261 112.428 76.6174 112.381 76.2841 112.381C75.6818 112.381 75.1572 112.53 74.7102 112.83C74.2633 113.125 73.9167 113.557 73.6705 114.125C73.4242 114.689 73.3011 115.375 73.3011 116.182C73.3011 117.011 73.4242 117.708 73.6705 118.273C73.9205 118.837 74.2689 119.263 74.7159 119.551C75.1629 119.839 75.6799 119.983 76.267 119.983C76.5966 119.983 76.9015 119.939 77.1818 119.852C77.4659 119.765 77.7178 119.638 77.9375 119.472C78.1572 119.301 78.339 119.095 78.483 118.852C78.6307 118.61 78.733 118.333 78.7898 118.023L81.2784 118.034C81.214 118.568 81.053 119.083 80.7955 119.58C80.5417 120.072 80.1989 120.513 79.767 120.903C79.339 121.29 78.8277 121.597 78.233 121.824C77.642 122.047 76.9735 122.159 76.2273 122.159C75.1894 122.159 74.2614 121.924 73.4432 121.455C72.6288 120.985 71.9848 120.305 71.5114 119.415C71.0417 118.525 70.8068 117.447 70.8068 116.182C70.8068 114.913 71.0455 113.833 71.5227 112.943C72 112.053 72.6477 111.375 73.4659 110.909C74.2841 110.439 75.2045 110.205 76.2273 110.205C76.9015 110.205 77.5265 110.299 78.1023 110.489C78.6818 110.678 79.1951 110.955 79.642 111.318C80.089 111.678 80.4527 112.119 80.733 112.642C81.017 113.165 81.1989 113.763 81.2784 114.438ZM85.4858 122.165C84.929 122.165 84.4328 122.068 83.9972 121.875C83.5616 121.678 83.2169 121.388 82.9631 121.006C82.7131 120.619 82.5881 120.138 82.5881 119.562C82.5881 119.078 82.6771 118.67 82.8551 118.341C83.0331 118.011 83.2756 117.746 83.5824 117.545C83.8892 117.345 84.2377 117.193 84.6278 117.091C85.0218 116.989 85.4347 116.917 85.8665 116.875C86.3741 116.822 86.7831 116.773 87.0938 116.727C87.4044 116.678 87.6297 116.606 87.7699 116.511C87.91 116.417 87.9801 116.277 87.9801 116.091V116.057C87.9801 115.697 87.8665 115.419 87.6392 115.222C87.4157 115.025 87.0975 114.926 86.6847 114.926C86.2491 114.926 85.9025 115.023 85.6449 115.216C85.3873 115.405 85.2169 115.644 85.1335 115.932L82.8949 115.75C83.0085 115.22 83.232 114.761 83.5653 114.375C83.8987 113.985 84.3286 113.686 84.8551 113.477C85.3854 113.265 85.9991 113.159 86.696 113.159C87.1809 113.159 87.6449 113.216 88.0881 113.33C88.535 113.443 88.9309 113.619 89.2756 113.858C89.6241 114.097 89.8987 114.403 90.0994 114.778C90.3002 115.15 90.4006 115.595 90.4006 116.114V122H88.1051V120.79H88.0369C87.8968 121.062 87.7093 121.303 87.4744 121.511C87.2396 121.716 86.9574 121.877 86.6278 121.994C86.2983 122.108 85.9176 122.165 85.4858 122.165ZM86.179 120.494C86.535 120.494 86.8494 120.424 87.1222 120.284C87.3949 120.14 87.6089 119.947 87.7642 119.705C87.9195 119.462 87.9972 119.187 87.9972 118.881V117.955C87.9214 118.004 87.8172 118.049 87.6847 118.091C87.5559 118.129 87.41 118.165 87.2472 118.199C87.0843 118.229 86.9214 118.258 86.7585 118.284C86.5956 118.307 86.4479 118.328 86.3153 118.347C86.0313 118.388 85.7831 118.455 85.571 118.545C85.3589 118.636 85.1941 118.759 85.0767 118.915C84.9593 119.066 84.9006 119.256 84.9006 119.483C84.9006 119.812 85.0199 120.064 85.2585 120.239C85.5009 120.409 85.8078 120.494 86.179 120.494ZM92.2784 122V113.273H94.625V114.795H94.7159C94.875 114.254 95.142 113.845 95.517 113.568C95.892 113.288 96.3239 113.148 96.8125 113.148C96.9337 113.148 97.0644 113.155 97.2045 113.17C97.3447 113.186 97.4678 113.206 97.5739 113.233V115.381C97.4602 115.347 97.303 115.316 97.1023 115.29C96.9015 115.263 96.7178 115.25 96.5511 115.25C96.1951 115.25 95.8769 115.328 95.5966 115.483C95.3201 115.634 95.1004 115.847 94.9375 116.119C94.7784 116.392 94.6989 116.706 94.6989 117.062V122H92.2784ZM101.635 122.142C100.972 122.142 100.372 121.972 99.8338 121.631C99.2997 121.286 98.8755 120.78 98.5611 120.114C98.2505 119.443 98.0952 118.621 98.0952 117.648C98.0952 116.648 98.2562 115.816 98.5781 115.153C98.9001 114.487 99.3281 113.989 99.8622 113.659C100.4 113.326 100.989 113.159 101.629 113.159C102.118 113.159 102.525 113.242 102.851 113.409C103.18 113.572 103.446 113.777 103.646 114.023C103.851 114.265 104.006 114.504 104.112 114.739H104.186V110.364H106.601V122H104.214V120.602H104.112C103.999 120.845 103.838 121.085 103.629 121.324C103.425 121.559 103.158 121.754 102.828 121.909C102.502 122.064 102.105 122.142 101.635 122.142ZM102.402 120.216C102.792 120.216 103.122 120.11 103.391 119.898C103.663 119.682 103.872 119.381 104.016 118.994C104.163 118.608 104.237 118.155 104.237 117.636C104.237 117.117 104.165 116.667 104.021 116.284C103.877 115.902 103.669 115.606 103.396 115.398C103.124 115.189 102.792 115.085 102.402 115.085C102.004 115.085 101.669 115.193 101.396 115.409C101.124 115.625 100.917 115.924 100.777 116.307C100.637 116.689 100.567 117.133 100.567 117.636C100.567 118.144 100.637 118.593 100.777 118.983C100.921 119.369 101.127 119.672 101.396 119.892C101.669 120.108 102.004 120.216 102.402 120.216Z" fill="#3B75AD"/>
    <defs>
        <linearGradient id="paint0_linear_3_40" x1="161.77" y1="126.979" x2="168.531" y2="184.971" gradientUnits="userSpaceOnUse">
            <stop stop-color="white"/>
            <stop offset="1" stop-color="#EDD0EA"/>
        </linearGradient>
    </defs>
</svg>
