<svg width="128" height="128" viewBox="0 0 128 128" fill="none" xmlns="http://www.w3.org/2000/svg">
    <path d="M104 16H24C19.5817 16 16 19.5817 16 24V104C16 108.418 19.5817 112 24 112H104C108.418 112 112 108.418 112 104V24C112 19.5817 108.418 16 104 16Z" fill="white" stroke="#E5E9F0" stroke-width="2"/>
    <g opacity="0.4" filter="url(#filter0_d_19_4)">
        <rect x="24" y="52" width="80" height="24" rx="4" fill="url(#paint0_linear_19_4)"/>
    </g>
    <rect opacity="0.4" x="48" y="58" width="50" height="11" rx="2" fill="url(#paint1_linear_19_4)"/>
    <g clip-path="url(#clip0_19_4)">
        <path d="M31 64C31 67.8609 34.1391 71 38 71C41.8609 71 45 67.8609 45 64C45 60.1391 41.8609 57 38 57C34.1391 57 31 60.1391 31 64Z" fill="url(#paint2_linear_19_4)"/>
        <path opacity="0.4" d="M40.7016 68.2656H35.3094C34.8172 68.2656 34.4125 67.8609 34.4125 67.3688C34.4125 65.7609 35.7141 64.4484 37.3328 64.4484H38.6781C40.2859 64.4484 41.5984 65.75 41.5984 67.3688C41.5984 67.8609 41.2047 68.2656 40.7016 68.2656ZM38 64.2188C36.7641 64.2188 35.7578 63.2125 35.7578 61.9766C35.7578 60.7406 36.7641 59.7344 38 59.7344C39.2359 59.7344 40.2422 60.7406 40.2422 61.9766C40.2531 63.2234 39.2359 64.2188 38 64.2188Z" fill="#DAE2FF"/>
    </g>
    <defs>
        <linearGradient id="paint0_linear_19_4" x1="24" y1="52" x2="1345.1" y2="4455.67" gradientUnits="userSpaceOnUse">
            <stop stop-color="#A3B8FF"/>
            <stop offset="1" stop-color="#8FA3E0"/>
        </linearGradient>
        <linearGradient id="paint1_linear_19_4" x1="48" y1="58" x2="509.656" y2="2156.44" gradientUnits="userSpaceOnUse">
            <stop stop-color="#A3B8FF"/>
            <stop offset="1" stop-color="#8FA3E0"/>
        </linearGradient>
        <linearGradient id="paint2_linear_19_4" x1="31" y1="57" x2="1431" y2="1457" gradientUnits="userSpaceOnUse">
            <stop stop-color="#A3B8FF"/>
            <stop offset="1" stop-color="#8FA3E0"/>
        </linearGradient>
        <clipPath id="clip0_19_4">
            <rect width="14" height="14" fill="white" transform="translate(31 57)"/>
        </clipPath>
    </defs>
</svg>
