<svg width="128" height="128" viewBox="0 0 128 128" fill="none" xmlns="http://www.w3.org/2000/svg">
    <path d="M104 16H24C19.5817 16 16 19.5817 16 24V104C16 108.418 19.5817 112 24 112H104C108.418 112 112 108.418 112 104V24C112 19.5817 108.418 16 104 16Z" fill="white" stroke="#E5E9F0" stroke-width="2"/>
    <g clip-path="url(#clip0_18_54)">
        <path d="M32 64C32 81.65 46.35 96 64 96C81.65 96 96 81.65 96 64C96 46.35 81.65 32 64 32C46.35 32 32 46.35 32 64Z" fill="#B5C6FF"/>
        <path d="M76.35 83.5H51.7C49.45 83.5 47.6 81.65 47.6 79.4C47.6 72.05 53.55 66.05 60.95 66.05H67.1C74.45 66.05 80.45 72 80.45 79.4C80.45 81.65 78.65 83.5 76.35 83.5ZM64 65C58.35 65 53.75 60.4 53.75 54.75C53.75 49.1 58.35 44.5 64 44.5C69.65 44.5 74.25 49.1 74.25 54.75C74.3 60.45 69.65 65 64 65Z" fill="#64B9FF"/>
        <path d="M76.35 83.5H51.7C49.45 83.5 47.6 81.65 47.6 79.4C47.6 72.05 53.55 66.05 60.95 66.05H67.1C74.45 66.05 80.45 72 80.45 79.4C80.45 81.65 78.65 83.5 76.35 83.5ZM64.05 65C58.4 65 53.8 60.4 53.8 54.75C53.75 49.1 58.35 44.5 64 44.5C69.65 44.5 74.25 49.1 74.25 54.75C74.3 60.45 69.65 65 64.05 65Z" fill="#DAE2FF"/>
    </g>
    <defs>
        <clipPath id="clip0_18_54">
            <rect width="64" height="64" fill="white" transform="translate(32 32)"/>
        </clipPath>
    </defs>
</svg>
