<svg width="128" height="128" viewBox="0 0 128 128" fill="none" xmlns="http://www.w3.org/2000/svg"><rect x="16" y="16" width="96" height="96" rx="8" fill="white" stroke="#E5E9F0" stroke-width="2"/><path d="M33 45C33 41.7 35.7 39 39 39H57L64 46H89C92.3 46 95 48.7 95 52V86C95 89.3 92.3 92 89 92H39C35.7 92 33 89.3 33 86V45Z" fill="#B8C7F7" stroke="#8FAAF9" stroke-width="2"/><rect x="45" y="55" width="38" height="28" rx="5" fill="#5F82F6"/><circle cx="73" cy="63" r="4" fill="white"/><path d="M49 78L58 68L65 75L70 70L80 80H49V78Z" fill="white" fill-opacity=".9"/></svg>
