<svg width="128" height="128" viewBox="0 0 128 128" fill="none" xmlns="http://www.w3.org/2000/svg">
    <path d="M104 16H24C19.5817 16 16 19.5817 16 24V104C16 108.418 19.5817 112 24 112H104C108.418 112 112 108.418 112 104V24C112 19.5817 108.418 16 104 16Z" fill="white" stroke="#E5E9F0" stroke-width="2"/>
    <path d="M74.9032 65.5567H65.5568V74.9031C65.5568 75.7599 64.8624 76.4599 64 76.4599C63.1432 76.4599 62.4432 75.7599 62.4432 74.9031V65.5567H53.0968C52.24 65.5567 51.54 64.8623 51.54 63.9999C51.54 63.1431 52.24 62.4431 53.0968 62.4431H62.4432V53.0967C62.4432 52.2399 63.1376 51.5399 64 51.5399C64.8568 51.5399 65.5568 52.2399 65.5568 53.0967V62.4431H74.9032C75.76 62.4431 76.46 63.1375 76.46 63.9999C76.4544 64.8567 75.7544 65.5567 74.9032 65.5567ZM64 39.1135C50.2576 39.1135 39.1136 50.2575 39.1136 63.9999C39.1136 77.7423 50.2576 88.8863 64 88.8863C77.7424 88.8863 88.8864 77.7423 88.8864 63.9999C88.8864 50.2575 77.7424 39.1135 64 39.1135Z" fill="#5E83E8"/>
</svg>
