<svg width="128" height="128" viewBox="0 0 128 128" fill="none" xmlns="http://www.w3.org/2000/svg">
    <path d="M104 16H24C19.5817 16 16 19.5817 16 24V104C16 108.418 19.5817 112 24 112H104C108.418 112 112 108.418 112 104V24C112 19.5817 108.418 16 104 16Z" fill="white" stroke="#E5E9F0" stroke-width="2"/>
    <path d="M68.5507 89.5071L62.6087 82.9709C62.6087 82.9709 68.5507 75.2463 69.7391 75.8405C70.9275 76.4347 84 89.5071 84 89.5071H68.5507Z" fill="#055A9D"/>
    <path d="M62.6087 82.9711L54.2899 74.6523L67.9565 60.9856L83.4058 61.5798L62.6087 82.9711Z" fill="#55B9E7"/>
    <path d="M50.7246 71.6812L43 63.9565L67.3623 39H82.8116L50.7246 71.6812Z" fill="#55B9E7"/>
</svg>
