<svg width="128" height="128" viewBox="0 0 128 128" fill="none" xmlns="http://www.w3.org/2000/svg">
    <path d="M104 16H24C19.5817 16 16 19.5817 16 24V104C16 108.418 19.5817 112 24 112H104C108.418 112 112 108.418 112 104V24C112 19.5817 108.418 16 104 16Z" fill="white" stroke="#E5E9F0" stroke-width="2"/>
    <path d="M68.959 66.039C68.083 66.039 67.426 65.309 67.426 64.506C67.426 63.703 68.01 63.192 68.959 63.119H77.938C78.522 63.119 79.252 62.389 79.252 61.805V51.074C79.252 50.49 78.595 49.76 77.938 49.76H51.074C50.417 49.76 49.76 50.49 49.76 51.074V61.805C49.76 62.389 50.49 63.119 51.074 63.119H52.461C53.41 63.119 53.994 63.703 53.994 64.506C53.994 65.382 53.264 66.039 52.461 66.039H51.074C48.738 66.039 46.84 64.141 46.84 61.805V51.074C46.84 48.738 48.738 46.84 51.074 46.84H77.865C80.201 46.84 82.099 48.738 82.099 51.074V61.805C82.099 64.141 80.201 66.039 77.865 66.039H68.959Z" fill="#605C5C"/>
    <path d="M58.447 82.099H58.228C57.79 82.099 57.352 81.953 57.06 81.588L50.709 74.799C49.906 73.996 49.541 72.974 49.541 71.879C49.541 70.784 49.979 69.689 50.782 68.886C51.585 68.083 52.607 67.645 53.775 67.645C54.87 67.645 55.892 68.083 56.622 68.813V60.491C56.622 58.155 58.52 56.33 60.856 56.33C63.192 56.33 65.09 58.228 65.09 60.491V68.302H74.58C76.697 68.302 78.449 70.2 78.449 72.536V77.865C78.449 80.201 76.697 82.099 74.58 82.099H58.447ZM74.653 79.398C75.091 79.398 75.821 78.522 75.821 77.938V72.609C75.821 72.025 75.091 71.149 74.653 71.149H63.557C63.119 71.149 62.389 70.93 62.316 69.616V60.491C62.316 59.907 61.513 59.25 60.856 59.25C60.199 59.25 59.323 59.98 59.323 60.491V73.412L59.25 73.485C58.812 73.777 58.447 73.923 58.155 73.923C57.79 73.923 57.425 73.777 57.133 73.558C57.06 73.558 56.987 73.485 56.914 73.412L54.432 71.149C54.14 70.857 53.702 70.711 53.337 70.711C53.191 70.711 52.899 70.784 52.753 70.93C52.534 71.149 52.461 71.514 52.461 71.952C52.461 72.39 52.607 72.755 52.753 72.974L59.031 79.471H74.653V79.398Z" fill="#5E83E8"/>
</svg>
