<svg width="256" height="256" viewBox="0 0 256 256" fill="none" xmlns="http://www.w3.org/2000/svg">
    <rect x="61" y="63" width="130" height="130" rx="15" fill="url(#paint0_linear_16_23)"/>
    <path d="M134.19 130.99C132.63 130.99 131.46 129.69 131.46 128.26C131.46 126.83 132.5 125.92 134.19 125.79H150.18C151.22 125.79 152.52 124.49 152.52 123.45V104.34C152.52 103.3 151.35 102 150.18 102H102.34C101.17 102 100 103.3 100 104.34V123.45C100 124.49 101.3 125.79 102.34 125.79H104.81C106.5 125.79 107.54 126.83 107.54 128.26C107.54 129.82 106.24 130.99 104.81 130.99H102.34C98.18 130.99 94.8 127.61 94.8 123.45V104.34C94.8 100.18 98.18 96.8 102.34 96.8H150.05C154.21 96.8 157.59 100.18 157.59 104.34V123.45C157.59 127.61 154.21 130.99 150.05 130.99H134.19Z" fill="#605C5C"/>
    <path d="M115.47 159.59H115.08C114.3 159.59 113.52 159.33 113 158.68L101.69 146.59C100.26 145.16 99.61 143.34 99.61 141.39C99.61 139.44 100.39 137.49 101.82 136.06C103.25 134.63 105.07 133.85 107.15 133.85C109.1 133.85 110.92 134.63 112.22 135.93V121.11C112.22 116.95 115.6 113.7 119.76 113.7C123.92 113.7 127.3 117.08 127.3 121.11V135.02H144.2C147.97 135.02 151.09 138.4 151.09 142.56V152.05C151.09 156.21 147.97 159.59 144.2 159.59H115.47ZM144.33 154.78C145.11 154.78 146.41 153.22 146.41 152.18V142.69C146.41 141.65 145.11 140.09 144.33 140.09H124.57C123.79 140.09 122.49 139.7 122.36 137.36V121.11C122.36 120.07 120.93 118.9 119.76 118.9C118.59 118.9 117.03 120.2 117.03 121.11V144.12L116.9 144.25C116.12 144.77 115.47 145.03 114.95 145.03C114.3 145.03 113.65 144.77 113.13 144.38C113 144.38 112.87 144.25 112.74 144.12L108.32 140.09C107.8 139.57 107.02 139.31 106.37 139.31C106.11 139.31 105.59 139.44 105.33 139.7C104.94 140.09 104.81 140.74 104.81 141.52C104.81 142.3 105.07 142.95 105.33 143.34L116.51 154.91H144.33V154.78Z" fill="#5E83E8"/>
    <defs>
        <linearGradient id="paint0_linear_16_23" x1="155.267" y1="109.042" x2="175.679" y2="201.249" gradientUnits="userSpaceOnUse">
            <stop stop-color="white"/>
            <stop offset="1" stop-color="#EDD0EA"/>
        </linearGradient>
    </defs>
</svg>
