<svg width="128" height="128" viewBox="0 0 128 128" fill="none" xmlns="http://www.w3.org/2000/svg">
    <path d="M104 16H24C19.5817 16 16 19.5817 16 24V104C16 108.418 19.5817 112 24 112H104C108.418 112 112 108.418 112 104V24C112 19.5817 108.418 16 104 16Z" fill="white" stroke="#E5E9F0" stroke-width="2"/>
    <path opacity="0.9" d="M49 34H37C35.3431 34 34 35.3431 34 37V49C34 50.6569 35.3431 52 37 52H49C50.6569 52 52 50.6569 52 49V37C52 35.3431 50.6569 34 49 34Z" fill="#4D77FF"/>
    <path opacity="0.8" d="M70 34H58C56.3431 34 55 35.3431 55 37V49C55 50.6569 56.3431 52 58 52H70C71.6569 52 73 50.6569 73 49V37C73 35.3431 71.6569 34 70 34Z" fill="#4D77FF"/>
    <path opacity="0.7" d="M91 34H79C77.3431 34 76 35.3431 76 37V49C76 50.6569 77.3431 52 79 52H91C92.6569 52 94 50.6569 94 49V37C94 35.3431 92.6569 34 91 34Z" fill="#4D77FF"/>
    <path opacity="0.6" d="M49 55H37C35.3431 55 34 56.3431 34 58V70C34 71.6569 35.3431 73 37 73H49C50.6569 73 52 71.6569 52 70V58C52 56.3431 50.6569 55 49 55Z" fill="#4D77FF"/>
    <path opacity="0.5" d="M70 55H58C56.3431 55 55 56.3431 55 58V70C55 71.6569 56.3431 73 58 73H70C71.6569 73 73 71.6569 73 70V58C73 56.3431 71.6569 55 70 55Z" fill="#4D77FF"/>
    <path opacity="0.4" d="M91 55H79C77.3431 55 76 56.3431 76 58V70C76 71.6569 77.3431 73 79 73H91C92.6569 73 94 71.6569 94 70V58C94 56.3431 92.6569 55 91 55Z" fill="#4D77FF"/>
    <path opacity="0.3" d="M49 76H37C35.3431 76 34 77.3431 34 79V91C34 92.6569 35.3431 94 37 94H49C50.6569 94 52 92.6569 52 91V79C52 77.3431 50.6569 76 49 76Z" fill="#4D77FF"/>
    <path opacity="0.2" d="M70 76H58C56.3431 76 55 77.3431 55 79V91C55 92.6569 56.3431 94 58 94H70C71.6569 94 73 92.6569 73 91V79C73 77.3431 71.6569 76 70 76Z" fill="#4D77FF"/>
    <path opacity="0.1" d="M91 76H79C77.3431 76 76 77.3431 76 79V91C76 92.6569 77.3431 94 79 94H91C92.6569 94 94 92.6569 94 91V79C94 77.3431 92.6569 76 91 76Z" fill="#4D77FF"/>
</svg>
