<svg width="128" height="128" viewBox="0 0 128 128" fill="none" xmlns="http://www.w3.org/2000/svg">
    <path d="M104 16H24C19.5817 16 16 19.5817 16 24V104C16 108.418 19.5817 112 24 112H104C108.418 112 112 108.418 112 104V24C112 19.5817 108.418 16 104 16Z" fill="white" stroke="#E5E9F0" stroke-width="2"/>
    <g clip-path="url(#clip0_22_239)">
        <path d="M58.5734 62.4274L58.5701 62.4266L58.1808 62.3376L58.1469 62.3273C57.0404 61.9926 56.1002 61.2604 55.5093 60.2398C54.9176 59.2127 54.7523 58.0174 55.0244 56.8897L55.0347 56.8471L55.1519 56.4955L55.1526 56.4905C55.1538 56.4804 55.1544 56.4675 55.154 56.4525C55.1531 56.4143 55.146 56.3699 55.133 56.3253C55.12 56.2807 55.1021 56.2395 55.0823 56.2068C55.0711 56.1882 55.0618 56.1762 55.0573 56.1713C55.051 56.1663 55.0428 56.16 55.0326 56.1523C54.9882 56.1185 54.9292 56.0758 54.8544 56.0243C54.6269 55.8676 54.3235 55.677 53.936 55.4533C53.547 55.2305 53.2294 55.0632 52.9796 54.9438C52.8972 54.9043 52.8303 54.8741 52.7784 54.852C52.7689 54.8479 52.7594 54.844 52.7498 54.8401L52.7456 54.8393C52.7339 54.8374 52.722 54.8363 52.71 54.8362C52.6733 54.8353 52.63 54.8401 52.5858 54.8509C52.5412 54.8617 52.4995 54.8777 52.4657 54.8961C52.4424 54.9087 52.4283 54.9195 52.4257 54.9222L52.1564 55.2098L52.1337 55.2314C51.2937 56.026 50.1845 56.475 49.0021 56.475C47.8176 56.475 46.6988 56.0201 45.8593 55.2202L45.8376 55.1994L45.5778 54.9213L45.5755 54.9188C45.528 54.8677 45.3251 54.8178 45.2566 54.839C45.2482 54.8423 45.2369 54.847 45.2225 54.8531C45.1704 54.8751 45.1032 54.9053 45.0206 54.9446C44.7704 55.0636 44.4532 55.2304 44.0654 55.4524C43.6789 55.6774 43.3771 55.8687 43.1513 56.0256C43.0772 56.0772 43.0188 56.1198 42.975 56.1534C42.9654 56.1607 42.9559 56.1682 42.9465 56.1758L42.9435 56.1782C42.9445 56.1774 42.9432 56.1787 42.9403 56.1822C42.9342 56.1894 42.9272 56.1992 42.9198 56.2113C42.9008 56.2425 42.8835 56.2821 42.8708 56.3254C42.858 56.369 42.8511 56.4127 42.8501 56.4507C42.8495 56.4769 42.8516 56.4942 42.853 56.4988L42.9648 56.8673L42.9722 56.8987C43.2391 58.0285 43.0758 59.2165 42.4862 60.2396C41.8954 61.2657 40.9439 62.004 39.8296 62.3333L39.797 62.343L39.7638 62.3504L39.4242 62.4269C39.3565 62.4423 39.211 62.5932 39.1942 62.6644C39.193 62.6727 39.1914 62.6841 39.1896 62.6985C39.1826 62.7536 39.1752 62.8259 39.1681 62.9162C39.1462 63.1915 39.1328 63.5497 39.1328 63.998C39.1328 64.4462 39.1462 64.8043 39.1681 65.0795C39.1752 65.1698 39.1826 65.2421 39.1896 65.2973C39.1915 65.3124 39.1931 65.3241 39.1944 65.3325C39.2103 65.4037 39.3537 65.553 39.4215 65.5682L39.4246 65.5689L39.7912 65.6536L39.8211 65.6624C40.938 65.9927 41.8927 66.7325 42.4824 67.7611C43.0736 68.7881 43.2387 69.9828 42.9668 71.1102L42.9603 71.1371L42.8532 71.4957L42.8523 71.4988C42.8526 71.4978 42.8521 71.5001 42.8515 71.5052C42.8502 71.5153 42.8496 71.5282 42.85 71.5432C42.8509 71.5815 42.858 71.6258 42.871 71.6705C42.884 71.7151 42.9019 71.7563 42.9216 71.789C42.9329 71.8075 42.9421 71.8194 42.9465 71.8242C42.9529 71.8293 42.9611 71.8356 42.9713 71.8434C43.0158 71.8772 43.0749 71.9199 43.1497 71.9714C43.3776 72.1285 43.6814 72.3195 44.0693 72.5435C44.4576 72.7676 44.774 72.9348 45.0224 73.0529C45.1038 73.0916 45.1696 73.1211 45.2204 73.1423C45.234 73.1481 45.2447 73.1524 45.2525 73.1555C45.253 73.1555 45.2549 73.1559 45.258 73.1565C45.2674 73.1581 45.2795 73.1593 45.2939 73.1597C45.3307 73.1605 45.3741 73.1557 45.4183 73.1449C45.4629 73.1341 45.5046 73.1181 45.5384 73.0997C45.5611 73.0874 45.5751 73.0769 45.5793 73.0726L45.8342 72.7994L45.8575 72.7773C46.7024 71.9777 47.816 71.5251 49.0021 71.5251C50.1887 71.5251 51.308 71.9824 52.1492 72.7843L52.171 72.8051L52.4267 73.0789L52.429 73.0814C52.4763 73.1325 52.679 73.1823 52.7482 73.1609C52.7565 73.1576 52.7678 73.1529 52.7822 73.1469C52.8343 73.1249 52.9014 73.0947 52.9839 73.0555C53.2344 72.9364 53.5521 72.7693 53.9405 72.5468C54.3272 72.3237 54.6289 72.1335 54.8544 71.9774C54.9282 71.9262 54.9863 71.884 55.0297 71.8506C55.0392 71.8434 55.0485 71.8361 55.0578 71.8286L55.0608 71.8261C55.0595 71.8272 55.0605 71.8262 55.0632 71.8229C55.0692 71.8158 55.0762 71.806 55.0836 71.7938C55.1028 71.7622 55.1203 71.722 55.1331 71.678C55.1461 71.6335 55.1532 71.5889 55.1542 71.5501C55.1548 71.5235 55.1526 71.5059 55.1511 71.5008L55.1504 71.4984L55.0391 71.1276L55.0322 71.0983C54.7647 69.9715 54.9287 68.7825 55.5181 67.7645C56.1092 66.7385 57.0648 65.9963 58.1785 65.6666L58.2086 65.6577L58.5725 65.5737L58.5766 65.5727C58.6437 65.5575 58.7892 65.4067 58.8059 65.3358C58.8071 65.3274 58.8087 65.3161 58.8105 65.3017C58.8175 65.2465 58.8249 65.1742 58.832 65.0839C58.8538 64.8091 58.8672 64.4515 58.8672 64.0042C58.8654 63.5653 58.8515 63.2119 58.8298 62.9375C58.8222 62.8404 58.8142 62.7626 58.8067 62.7031C58.8051 62.6903 58.8034 62.6775 58.8015 62.6647C58.7849 62.5938 58.6396 62.4423 58.5734 62.4274V62.4274ZM44.0623 55.4541L44.0685 55.4506C44.0664 55.4517 44.0644 55.4529 44.0623 55.4541ZM60.8321 62.3023V62.3024C60.8485 62.3937 60.868 62.5486 60.886 62.7752C60.9118 63.1028 60.9277 63.5081 60.9297 63.9981V64.0021C60.9297 64.5034 60.9143 64.9157 60.8881 65.2467C60.871 65.4615 60.8524 65.6092 60.8368 65.6958C60.6788 66.5808 59.9092 67.3843 59.035 67.5836L58.7364 67.6526C58.1366 67.8375 57.6245 68.24 57.3041 68.796C56.9858 69.3457 56.8944 69.9833 57.0327 70.5951L57.1255 70.9046C57.3847 71.763 57.0757 72.8248 56.3904 73.4028C56.3208 73.4621 56.203 73.5522 56.0288 73.6729C55.755 73.8625 55.405 74.083 54.9698 74.3341L54.9672 74.3356C54.5338 74.5839 54.1693 74.7756 53.8698 74.918C53.7599 74.9703 53.6647 75.0131 53.5839 75.0471C53.5284 75.0706 53.4863 75.0871 53.4576 75.0976C52.6116 75.4062 51.5301 75.1439 50.9181 74.4853L50.7062 74.2583C50.2471 73.8302 49.644 73.5875 49.0021 73.5875C48.3587 73.5875 47.7595 73.8271 47.2968 74.2551L47.0854 74.4817L47.083 74.4842C46.4682 75.139 45.3943 75.4008 44.5495 75.0945C44.4651 75.0641 44.3289 75.0069 44.1365 74.9154C43.8374 74.7731 43.4727 74.5805 43.038 74.3296C42.6037 74.0788 42.2538 73.8588 41.9797 73.6699C41.8018 73.5474 41.6829 73.457 41.6146 73.3992L41.6126 73.3976C40.9294 72.8168 40.6191 71.7554 40.8786 70.8998L40.9676 70.6021C41.1084 69.9913 41.0162 69.3478 40.6946 68.7895L40.6934 68.7874C40.3761 68.2337 39.8664 67.8341 39.2635 67.6485L38.9658 67.5797C38.0878 67.3807 37.3212 66.5776 37.1636 65.6933C37.1478 65.6053 37.1291 65.4576 37.112 65.2427C37.0858 64.9117 37.0703 64.4993 37.0703 63.998C37.0703 63.4967 37.0858 63.0841 37.112 62.753C37.1291 62.5381 37.1478 62.3904 37.1633 62.3043C37.3211 61.4188 38.0918 60.6148 38.9689 60.4153L39.2748 60.3464C39.8738 60.1614 40.3805 59.7633 40.699 59.2101C41.0182 58.6561 41.1098 58.0177 40.9716 57.4017L40.8792 57.097C40.6192 56.238 40.9283 55.1796 41.6141 54.6013C41.6831 54.5427 41.8004 54.4529 41.9741 54.3321C42.2472 54.1422 42.5966 53.9207 43.0312 53.6679L43.0343 53.6661L43.0374 53.6643C43.4707 53.4161 43.8351 53.2246 44.1344 53.0821C44.2443 53.0299 44.3394 52.9871 44.4201 52.953C44.4755 52.9296 44.5175 52.9131 44.5467 52.9024C45.3926 52.5939 46.4741 52.8563 47.0861 53.5145L47.3021 53.7458C47.7586 54.1713 48.361 54.4125 49.0021 54.4125C49.6431 54.4125 50.238 54.1756 50.6953 53.7527L50.9213 53.5113C51.5369 52.8561 52.6123 52.5944 53.4571 52.9024L53.4605 52.9036C53.4893 52.9142 53.5308 52.9307 53.5857 52.9541C53.6657 52.9881 53.76 53.0307 53.8692 53.083C54.1666 53.2251 54.5297 53.4165 54.9625 53.6643L54.9655 53.6661C55.4 53.9168 55.7501 54.1369 56.0243 54.3258C56.2023 54.4483 56.3212 54.5388 56.3897 54.5967L56.3916 54.5983C57.0756 55.1802 57.3858 56.2434 57.1242 57.0995L57.1205 57.1119L57.0203 57.4125C56.8841 58.0188 56.9774 58.6565 57.2953 59.2083C57.6142 59.7592 58.1154 60.1546 58.7129 60.3435L59.0287 60.4158C59.9055 60.6143 60.673 61.42 60.832 62.3023L60.8321 62.3023ZM49.0117 68.7813C46.3789 68.7813 44.2422 66.6451 44.2422 64.0101C44.2422 61.3767 46.377 59.2422 49.0117 59.2422C51.6446 59.2422 53.7812 61.3785 53.7812 64.0155C53.7765 66.6477 51.6425 68.7813 49.0117 68.7813ZM49.0117 66.7188C50.5041 66.7188 51.7161 65.5071 51.7188 64.0136C51.7188 62.5177 50.5056 61.3047 49.0117 61.3047C47.5161 61.3047 46.3047 62.5159 46.3047 64.0101C46.3047 65.5059 47.5179 66.7188 49.0117 66.7188Z" fill="url(#paint0_linear_22_239)"/>
    </g>
    <g clip-path="url(#clip1_22_239)">
        <path d="M89.9084 54.7181C88.4001 53.2098 86.5677 52.5896 84.6084 52.8997C83.0579 53.1394 81.4792 53.971 79.9992 55.296C78.505 53.971 76.9263 53.1394 75.3758 52.8997C73.4165 52.5896 71.5841 53.2098 70.0759 54.7181C68.5536 56.2404 67.8347 58.242 68.032 60.3422C68.2435 62.4284 69.3288 64.5145 71.1753 66.361C71.4572 66.6429 72.4862 67.6719 73.5293 68.715C74.7838 69.9836 76.0665 71.2663 76.0947 71.2945C76.1088 71.3086 76.1229 71.3086 76.137 71.3227L79.9851 75.1708L81.1268 74.0431L81.2396 73.9444C81.451 73.9444 87.4557 67.686 88.7807 66.3469C90.6272 64.5004 91.7126 62.4143 91.924 60.3281C92.1496 58.242 91.4307 56.2404 89.9084 54.7181ZM71.4572 59.567C71.3163 59.9898 71.2317 60.3845 71.2035 60.6805C71.1612 61.0047 70.8934 61.2443 70.5692 61.2443H70.5269C70.1323 61.2443 69.8222 60.8778 69.8926 60.4832C69.9772 59.9898 70.1041 59.5388 70.245 59.13C70.386 58.7494 70.837 58.5944 71.1894 58.7917H71.2035C71.4432 58.9467 71.5559 59.2709 71.4572 59.567ZM76.5317 55.3101C76.5317 55.6202 76.3202 55.888 76.0101 55.9444C74.1495 56.2545 73.0219 57.072 72.303 57.9742C72.1056 58.2279 71.7392 58.2984 71.4572 58.1292H71.4432C71.119 57.9319 71.0485 57.4808 71.274 57.1707C72.6836 55.3242 74.6992 54.7463 75.7846 54.5771C76.1793 54.5207 76.5176 54.8167 76.5176 55.2114V55.3101H76.5317Z" fill="#F27272"/>
    </g>
    <defs>
        <linearGradient id="paint0_linear_22_239" x1="37.0703" y1="52.7737" x2="2278.2" y2="2434.31" gradientUnits="userSpaceOnUse">
            <stop stop-color="#A3B8FF"/>
            <stop offset="1" stop-color="#8FA3E0"/>
        </linearGradient>
        <clipPath id="clip0_22_239">
            <rect width="24" height="24" fill="white" transform="translate(37 52)"/>
        </clipPath>
        <clipPath id="clip1_22_239">
            <rect width="24" height="24" fill="white" transform="translate(68 52)"/>
        </clipPath>
    </defs>
</svg>
