<svg width="256" height="256" viewBox="0 0 256 256" fill="none" xmlns="http://www.w3.org/2000/svg">
    <path d="M170 89.7143C170 88.216 168.964 87 167.688 87H98.3116C97.036 87 96 88.216 96 89.7143V103.286C96 104.784 97.036 106 98.3116 106H167.688C168.964 106 170 104.784 170 103.286V89.7143Z" fill="#A0BFF7"/>
    <path d="M170 113.659C170 112.191 168.964 111 167.688 111H98.3116C97.036 111 96 112.191 96 113.659V126.955C96 128.422 97.036 129.614 98.3116 129.614H167.688C168.964 129.614 170 128.422 170 126.955V113.659Z" fill="#69CB91"/>
    <path d="M170 137.273C170 135.805 168.964 134.614 167.688 134.614H98.3116C97.036 134.614 96 135.805 96 137.273V150.568C96 152.036 97.036 153.227 98.3116 153.227H167.688C168.964 153.227 170 152.036 170 150.568V137.273Z" fill="#C8BBDB"/>
    <path d="M170 160.886C170 159.419 168.964 158.227 167.688 158.227H98.3116C97.036 158.227 96 159.419 96 160.886V174.182C96 175.65 97.036 176.841 98.3116 176.841H167.688C168.964 176.841 170 175.65 170 174.182V160.886Z" fill="#A0BFF7"/>
</svg>
