<svg width="128" height="128" viewBox="0 0 128 128" fill="none" xmlns="http://www.w3.org/2000/svg">
    <path d="M104 16H24C19.5817 16 16 19.5817 16 24V104C16 108.418 19.5817 112 24 112H104C108.418 112 112 108.418 112 104V24C112 19.5817 108.418 16 104 16Z" fill="white" stroke="#E5E9F0" stroke-width="2"/>
    <path opacity="0.9" d="M92 24.8H36C33.7909 24.8 32 26.5909 32 28.8V36.8C32 39.0092 33.7909 40.8 36 40.8H92C94.2091 40.8 96 39.0092 96 36.8V28.8C96 26.5909 94.2091 24.8 92 24.8Z" fill="#4D77FF"/>
    <path opacity="0.7" d="M92 45.6H36C33.7909 45.6 32 47.3908 32 49.6V57.6C32 59.8091 33.7909 61.6 36 61.6H92C94.2091 61.6 96 59.8091 96 57.6V49.6C96 47.3908 94.2091 45.6 92 45.6Z" fill="#4D77FF"/>
    <path opacity="0.5" d="M92 66.4H36C33.7909 66.4 32 68.1909 32 70.4V78.4C32 80.6092 33.7909 82.4 36 82.4H92C94.2091 82.4 96 80.6092 96 78.4V70.4C96 68.1909 94.2091 66.4 92 66.4Z" fill="#4D77FF"/>
    <path opacity="0.3" d="M92 87.2H36C33.7909 87.2 32 88.9908 32 91.2V99.2C32 101.409 33.7909 103.2 36 103.2H92C94.2091 103.2 96 101.409 96 99.2V91.2C96 88.9908 94.2091 87.2 92 87.2Z" fill="#4D77FF"/>
    <path d="M96 20H32C27.5817 20 24 23.5817 24 28V32C24 36.4183 27.5817 40 32 40H96C100.418 40 104 36.4183 104 32V28C104 23.5817 100.418 20 96 20Z" fill="url(#paint0_linear_20_84)"/>
    <path d="M32 108L96 108C100.418 108 104 104.418 104 100V96C104 91.5817 100.418 88 96 88H32C27.5817 88 24 91.5817 24 96V100C24 104.418 27.5817 108 32 108Z" fill="url(#paint1_linear_20_84)"/>
    <defs>
        <linearGradient id="paint0_linear_20_84" x1="24" y1="20" x2="24" y2="40" gradientUnits="userSpaceOnUse">
            <stop stop-color="white" stop-opacity="0.8"/>
            <stop offset="1" stop-color="white" stop-opacity="0"/>
        </linearGradient>
        <linearGradient id="paint1_linear_20_84" x1="104" y1="108" x2="104" y2="88" gradientUnits="userSpaceOnUse">
            <stop stop-color="white" stop-opacity="0.8"/>
            <stop offset="1" stop-color="white" stop-opacity="0"/>
        </linearGradient>
    </defs>
</svg>
