<svg width="128" height="128" viewBox="0 0 128 128" fill="none" xmlns="http://www.w3.org/2000/svg">
    <path d="M104 16H24C19.5817 16 16 19.5817 16 24V104C16 108.418 19.5817 112 24 112H104C108.418 112 112 108.418 112 104V24C112 19.5817 108.418 16 104 16Z" fill="white" stroke="#E5E9F0" stroke-width="2"/>
    <g opacity="0.4" filter="url(#filter0_d_21_15)">
        <rect x="24" y="52" width="80" height="24" rx="4" fill="url(#paint0_linear_21_15)"/>
    </g>
    <path d="M48.8807 68V60.7273H51.4233C51.9299 60.7273 52.3478 60.8149 52.6768 60.9901C53.0059 61.1629 53.2509 61.3961 53.4119 61.6896C53.5729 61.9808 53.6534 62.304 53.6534 62.6591C53.6534 62.9716 53.5978 63.2296 53.4865 63.4332C53.3776 63.6368 53.2332 63.7978 53.0533 63.9162C52.8757 64.0346 52.6828 64.1222 52.4744 64.179V64.25C52.697 64.2642 52.9207 64.3423 53.1456 64.4844C53.3705 64.6264 53.5587 64.83 53.7102 65.0952C53.8617 65.3603 53.9375 65.6847 53.9375 66.0682C53.9375 66.4328 53.8546 66.7607 53.6889 67.0518C53.5232 67.343 53.2616 67.5739 52.9041 67.7443C52.5466 67.9148 52.0814 68 51.5085 68H48.8807ZM49.7614 67.2188H51.5085C52.0838 67.2188 52.4922 67.1075 52.7337 66.8849C52.9775 66.66 53.0994 66.3878 53.0994 66.0682C53.0994 65.822 53.0367 65.5947 52.9112 65.3864C52.7857 65.1757 52.607 65.0076 52.375 64.8821C52.143 64.7543 51.8684 64.6903 51.5511 64.6903H49.7614V67.2188ZM49.7614 63.9233H51.3949C51.66 63.9233 51.8991 63.8712 52.1122 63.767C52.3277 63.6629 52.4981 63.5161 52.6236 63.3267C52.7514 63.1373 52.8153 62.9148 52.8153 62.6591C52.8153 62.3395 52.7041 62.0684 52.4815 61.8459C52.259 61.621 51.9063 61.5085 51.4233 61.5085H49.7614V63.9233ZM58.7085 65.7699V62.5455H59.5465V68H58.7085V67.0767H58.6516C58.5238 67.3537 58.3249 67.5893 58.055 67.7834C57.7852 67.9751 57.4442 68.071 57.0323 68.071C56.6914 68.071 56.3884 67.9964 56.1232 67.8473C55.8581 67.6958 55.6497 67.4685 55.4982 67.1655C55.3467 66.8601 55.271 66.4754 55.271 66.0114V62.5455H56.109V65.9545C56.109 66.3523 56.2203 66.6695 56.4428 66.9062C56.6677 67.143 56.9542 67.2614 57.3022 67.2614C57.5105 67.2614 57.7224 67.2081 57.9379 67.1016C58.1557 66.995 58.3379 66.8317 58.4847 66.6115C58.6339 66.3913 58.7085 66.1108 58.7085 65.7699ZM63.4537 62.5455V63.2557H60.627V62.5455H63.4537ZM61.4508 61.2386H62.2889V66.4375C62.2889 66.6742 62.3232 66.8518 62.3919 66.9702C62.4629 67.0862 62.5529 67.1643 62.6618 67.2045C62.773 67.2424 62.8902 67.2614 63.0133 67.2614C63.1056 67.2614 63.1814 67.2566 63.2406 67.2472C63.2998 67.2353 63.3471 67.2259 63.3826 67.2188L63.5531 67.9716C63.4963 67.9929 63.417 68.0142 63.3152 68.0355C63.2134 68.0592 63.0843 68.071 62.9281 68.071C62.6913 68.071 62.4593 68.0201 62.2321 67.9183C62.0072 67.8165 61.8201 67.6615 61.671 67.4531C61.5242 67.2448 61.4508 66.982 61.4508 66.6648V61.2386ZM67.0865 62.5455V63.2557H64.2598V62.5455H67.0865ZM65.0836 61.2386H65.9217V66.4375C65.9217 66.6742 65.956 66.8518 66.0247 66.9702C66.0957 67.0862 66.1857 67.1643 66.2946 67.2045C66.4058 67.2424 66.523 67.2614 66.6461 67.2614C66.7385 67.2614 66.8142 67.2566 66.8734 67.2472C66.9326 67.2353 66.9799 67.2259 67.0154 67.2188L67.1859 67.9716C67.1291 67.9929 67.0498 68.0142 66.948 68.0355C66.8462 68.0592 66.7172 68.071 66.5609 68.071C66.3242 68.071 66.0922 68.0201 65.8649 67.9183C65.64 67.8165 65.4529 67.6615 65.3038 67.4531C65.157 67.2448 65.0836 66.982 65.0836 66.6648V61.2386ZM70.5044 68.1136C70.012 68.1136 69.58 67.9964 69.2083 67.7621C68.839 67.5277 68.5501 67.1998 68.3418 66.7784C68.1358 66.357 68.0328 65.8646 68.0328 65.3011C68.0328 64.733 68.1358 64.237 68.3418 63.8132C68.5501 63.3894 68.839 63.0604 69.2083 62.826C69.58 62.5916 70.012 62.4744 70.5044 62.4744C70.9969 62.4744 71.4277 62.5916 71.7971 62.826C72.1687 63.0604 72.4576 63.3894 72.6635 63.8132C72.8719 64.237 72.976 64.733 72.976 65.3011C72.976 65.8646 72.8719 66.357 72.6635 66.7784C72.4576 67.1998 72.1687 67.5277 71.7971 67.7621C71.4277 67.9964 70.9969 68.1136 70.5044 68.1136ZM70.5044 67.3608C70.8785 67.3608 71.1863 67.2649 71.4277 67.0732C71.6692 66.8814 71.848 66.6293 71.964 66.3168C72.08 66.0043 72.138 65.6657 72.138 65.3011C72.138 64.9366 72.08 64.5968 71.964 64.282C71.848 63.9671 71.6692 63.7126 71.4277 63.5185C71.1863 63.3243 70.8785 63.2273 70.5044 63.2273C70.1304 63.2273 69.8226 63.3243 69.5811 63.5185C69.3397 63.7126 69.1609 63.9671 69.0449 64.282C68.9289 64.5968 68.8709 64.9366 68.8709 65.3011C68.8709 65.6657 68.9289 66.0043 69.0449 66.3168C69.1609 66.6293 69.3397 66.8814 69.5811 67.0732C69.8226 67.2649 70.1304 67.3608 70.5044 67.3608ZM75.0934 64.7188V68H74.2553V62.5455H75.065V63.3977H75.136C75.2638 63.1207 75.458 62.8982 75.7184 62.7301C75.9788 62.5597 76.315 62.4744 76.7269 62.4744C77.0962 62.4744 77.4194 62.5502 77.6964 62.7017C77.9734 62.8509 78.1888 63.0781 78.3427 63.3835C78.4966 63.6866 78.5735 64.0701 78.5735 64.5341V68H77.7354V64.5909C77.7354 64.1624 77.6242 63.8286 77.4016 63.5895C77.1791 63.348 76.8737 63.2273 76.4854 63.2273C76.2179 63.2273 75.9788 63.2853 75.7681 63.4013C75.5598 63.5173 75.3952 63.6866 75.2745 63.9091C75.1538 64.1316 75.0934 64.4015 75.0934 64.7188Z" fill="black"/>
    <defs>
        <linearGradient id="paint0_linear_21_15" x1="24" y1="52" x2="1345.1" y2="4455.67" gradientUnits="userSpaceOnUse">
            <stop stop-color="#A3B8FF"/>
            <stop offset="1" stop-color="#8FA3E0"/>
        </linearGradient>
    </defs>
</svg>
