<svg width="128" height="128" viewBox="0 0 128 128" fill="none" xmlns="http://www.w3.org/2000/svg">
    <path d="M104 16H24C19.5817 16 16 19.5817 16 24V104C16 108.418 19.5817 112 24 112H104C108.418 112 112 108.418 112 104V24C112 19.5817 108.418 16 104 16Z" fill="white" stroke="#E5E9F0" stroke-width="2"/>
    <path d="M59.0227 73L61.9205 55.5455H63.9318L62.875 61.9886H63.0455C63.2273 61.7614 63.4801 61.4716 63.804 61.1193C64.1278 60.7614 64.5625 60.4432 65.108 60.1648C65.6534 59.8807 66.3523 59.7386 67.2045 59.7386C68.3068 59.7386 69.2301 60.0142 69.9744 60.5653C70.7244 61.1165 71.25 61.8977 71.5511 62.9091C71.858 63.9205 71.8977 65.1136 71.6705 66.4886C71.4432 67.875 71.0085 69.0767 70.3665 70.0938C69.7301 71.1051 68.946 71.8892 68.0142 72.446C67.0881 72.9972 66.0795 73.2727 64.9886 73.2727C64.1477 73.2727 63.4972 73.1335 63.0369 72.8551C62.5824 72.571 62.2472 72.25 62.0312 71.892C61.821 71.5284 61.6591 71.2273 61.5455 70.9886H61.3068L60.9659 73H59.0227ZM62.0909 66.4545C61.9318 67.4432 61.9347 68.3153 62.0994 69.071C62.2642 69.821 62.5909 70.4091 63.0795 70.8352C63.5682 71.2557 64.2159 71.4659 65.0227 71.4659C65.8636 71.4659 66.6023 71.2443 67.2386 70.8011C67.875 70.3523 68.3977 69.75 68.8068 68.9943C69.2159 68.233 69.5 67.3864 69.6591 66.4545C69.8068 65.5341 69.8011 64.7045 69.642 63.9659C69.4886 63.2216 69.1648 62.6335 68.6705 62.2017C68.1818 61.7642 67.5114 61.5455 66.6591 61.5455C65.8409 61.5455 65.1165 61.7528 64.4858 62.1676C63.8608 62.5767 63.3438 63.1506 62.9347 63.8892C62.5313 64.6222 62.25 65.4773 62.0909 66.4545Z" fill="#FFD23E"/>
    <path d="M78.9403 73.2727C77.7074 73.2727 76.696 72.983 75.9062 72.4034C75.1222 71.8239 74.5767 71.0256 74.2699 70.0085C73.9631 68.9915 73.9176 67.8295 74.1335 66.5227C74.3494 65.1932 74.7869 64.0199 75.446 63.0028C76.1051 61.9801 76.9261 61.1818 77.9091 60.608C78.892 60.0284 79.9744 59.7386 81.1562 59.7386C82.0767 59.7386 82.8778 59.9091 83.5597 60.25C84.2415 60.5909 84.767 61.0682 85.1364 61.6818C85.5057 62.2955 85.679 63.0114 85.6562 63.8295H83.6449C83.5881 63.233 83.3324 62.7045 82.8778 62.2443C82.429 61.7784 81.7642 61.5455 80.8835 61.5455C80.0994 61.5455 79.3778 61.75 78.7188 62.1591C78.0597 62.5625 77.5057 63.1335 77.0568 63.8722C76.608 64.6051 76.304 65.4659 76.1449 66.4545C75.9744 67.4659 75.9886 68.3466 76.1875 69.0966C76.3864 69.8466 76.7472 70.429 77.2699 70.8438C77.7926 71.2585 78.4517 71.4659 79.2472 71.4659C79.7699 71.4659 80.2585 71.375 80.7131 71.1932C81.1676 71.0114 81.571 70.75 81.9233 70.4091C82.2756 70.0682 82.554 69.6591 82.7585 69.1818H84.7699C84.5199 69.9545 84.1193 70.6506 83.5682 71.2699C83.017 71.8835 82.3494 72.3722 81.5653 72.7358C80.7813 73.0938 79.9063 73.2727 78.9403 73.2727Z" fill="#F45C5C"/>
    <path d="M44.5256 73H40.571L46.5966 55.5455H51.3523L57.3693 73H53.4148L49.0426 59.5341H48.9062L44.5256 73ZM44.2784 66.1392H53.6193V69.0199H44.2784V66.1392Z" fill="#3B75AD"/>
</svg>
