<svg width="256" height="256" viewBox="0 0 256 256" fill="none" xmlns="http://www.w3.org/2000/svg">
    <rect x="63" y="70" width="130" height="130" rx="15" fill="url(#paint0_linear_7_13)"/>
    <path d="M126.593 147L129.974 126.636H132.32L131.087 134.153H131.286C131.498 133.888 131.793 133.55 132.171 133.139C132.549 132.722 133.056 132.35 133.693 132.026C134.329 131.694 135.144 131.528 136.139 131.528C137.425 131.528 138.502 131.85 139.37 132.493C140.245 133.136 140.858 134.047 141.21 135.227C141.568 136.407 141.614 137.799 141.349 139.403C141.084 141.021 140.577 142.423 139.828 143.609C139.085 144.789 138.17 145.704 137.083 146.354C136.003 146.997 134.826 147.318 133.553 147.318C132.572 147.318 131.813 147.156 131.276 146.831C130.746 146.5 130.355 146.125 130.103 145.707C129.858 145.283 129.669 144.932 129.536 144.653H129.258L128.86 147H126.593ZM130.173 139.364C129.987 140.517 129.99 141.535 130.183 142.416C130.375 143.291 130.756 143.977 131.326 144.474C131.896 144.965 132.652 145.21 133.593 145.21C134.574 145.21 135.436 144.952 136.178 144.435C136.921 143.911 137.531 143.208 138.008 142.327C138.485 141.438 138.817 140.451 139.002 139.364C139.175 138.29 139.168 137.322 138.982 136.46C138.803 135.592 138.426 134.906 137.849 134.402C137.279 133.892 136.497 133.636 135.502 133.636C134.548 133.636 133.703 133.878 132.967 134.362C132.238 134.839 131.634 135.509 131.157 136.371C130.686 137.226 130.358 138.223 130.173 139.364ZM149.83 147.318C148.392 147.318 147.212 146.98 146.291 146.304C145.376 145.628 144.739 144.696 144.382 143.51C144.024 142.323 143.971 140.968 144.222 139.443C144.474 137.892 144.985 136.523 145.754 135.337C146.523 134.143 147.48 133.212 148.627 132.543C149.774 131.866 151.037 131.528 152.416 131.528C153.489 131.528 154.424 131.727 155.22 132.125C156.015 132.523 156.628 133.08 157.059 133.795C157.49 134.511 157.692 135.347 157.666 136.301H155.319C155.253 135.605 154.954 134.989 154.424 134.452C153.9 133.908 153.125 133.636 152.097 133.636C151.183 133.636 150.341 133.875 149.572 134.352C148.803 134.823 148.157 135.489 147.633 136.351C147.109 137.206 146.755 138.21 146.569 139.364C146.37 140.544 146.387 141.571 146.619 142.446C146.851 143.321 147.272 144 147.882 144.484C148.491 144.968 149.26 145.21 150.188 145.21C150.798 145.21 151.368 145.104 151.899 144.892C152.429 144.68 152.9 144.375 153.311 143.977C153.721 143.58 154.046 143.102 154.285 142.545H156.632C156.34 143.447 155.873 144.259 155.23 144.982C154.587 145.697 153.808 146.268 152.893 146.692C151.978 147.109 150.957 147.318 149.83 147.318Z" fill="#898D92"/>
    <path d="M107.28 147H102.666L109.696 126.636H115.244L122.264 147H117.651L112.55 131.29H112.391L107.28 147ZM106.991 138.996H117.889V142.357H106.991V138.996Z" fill="#3B75AD"/>
    <defs>
        <linearGradient id="paint0_linear_7_13" x1="157.267" y1="116.042" x2="177.679" y2="208.249" gradientUnits="userSpaceOnUse">
            <stop stop-color="white"/>
            <stop offset="1" stop-color="#EDD0EA"/>
        </linearGradient>
    </defs>
</svg>
