<svg width="128" height="128" viewBox="0 0 128 128" fill="none" xmlns="http://www.w3.org/2000/svg">
    <path d="M104 16H24C19.5817 16 16 19.5817 16 24V104C16 108.418 19.5817 112 24 112H104C108.418 112 112 108.418 112 104V24C112 19.5817 108.418 16 104 16Z" fill="white" stroke="#E5E9F0" stroke-width="2"/>
    <path d="M57.5932 72L60.9739 51.6364H63.3204L62.0875 59.1534H62.2864C62.4985 58.8883 62.7935 58.5502 63.1713 58.1392C63.5491 57.7216 64.0562 57.3504 64.6926 57.0256C65.329 56.6941 66.1443 56.5284 67.1386 56.5284C68.4246 56.5284 69.5018 56.8499 70.3702 57.4929C71.2452 58.1359 71.8583 59.0473 72.2097 60.2273C72.5676 61.4072 72.614 62.7992 72.3489 64.4034C72.0837 66.0208 71.5766 67.4228 70.8276 68.6094C70.0851 69.7893 69.1704 70.7041 68.0832 71.3537C67.0027 71.9967 65.8261 72.3182 64.5534 72.3182C63.5723 72.3182 62.8133 72.1558 62.2764 71.831C61.7461 71.4995 61.355 71.125 61.1031 70.7074C60.8579 70.2831 60.6689 69.9318 60.5364 69.6534H60.2579L59.8602 72H57.5932ZM61.1727 64.3636C60.9871 65.517 60.9904 66.5346 61.1827 67.4162C61.3749 68.2912 61.7561 68.9773 62.3261 69.4744C62.8962 69.965 63.6519 70.2102 64.5932 70.2102C65.5742 70.2102 66.436 69.9517 67.1784 69.4347C67.9208 68.911 68.5307 68.2083 69.0079 67.3267C69.4852 66.4384 69.8167 65.4508 70.0023 64.3636C70.1746 63.2898 70.168 62.322 69.9824 61.4602C69.8034 60.5919 69.4256 59.9058 68.8489 59.402C68.2788 58.8916 67.4966 58.6364 66.5023 58.6364C65.5477 58.6364 64.7026 58.8783 63.9668 59.3622C63.2376 59.8395 62.6344 60.509 62.1571 61.3707C61.6865 62.2259 61.3583 63.2235 61.1727 64.3636ZM80.8304 72.3182C79.3919 72.3182 78.212 71.9801 77.2906 71.304C76.3758 70.6278 75.7395 69.6965 75.3815 68.5099C75.0236 67.3234 74.9705 65.9678 75.2224 64.4432C75.4743 62.892 75.9847 61.5232 76.7537 60.3366C77.5226 59.1435 78.4805 58.2121 79.6273 57.5426C80.774 56.8665 82.0368 56.5284 83.4156 56.5284C84.4895 56.5284 85.4241 56.7273 86.2196 57.125C87.0151 57.5227 87.6282 58.0795 88.0591 58.7955C88.49 59.5114 88.6921 60.3466 88.6656 61.3011H86.319C86.2527 60.6051 85.9544 59.9886 85.4241 59.4517C84.9005 58.9081 84.1249 58.6364 83.0974 58.6364C82.1827 58.6364 81.3408 58.875 80.5719 59.3523C79.8029 59.8229 79.1566 60.4891 78.6329 61.3509C78.1093 62.206 77.7546 63.2102 77.569 64.3636C77.3702 65.5436 77.3867 66.571 77.6187 67.446C77.8508 68.321 78.2717 69.0005 78.8815 69.4844C79.4914 69.9683 80.2603 70.2102 81.1883 70.2102C81.7982 70.2102 82.3683 70.1042 82.8986 69.892C83.4289 69.6799 83.8995 69.375 84.3105 68.9773C84.7215 68.5795 85.0463 68.1023 85.2849 67.5455H87.6315C87.3399 68.447 86.8725 69.259 86.2295 69.9815C85.5865 70.6974 84.8077 71.2675 83.8929 71.6918C82.9781 72.1094 81.9573 72.3182 80.8304 72.3182Z" fill="#898D92"/>
    <path d="M38.2798 72H33.6662L40.696 51.6364H46.2443L53.2642 72H48.6506L43.5497 56.2898H43.3906L38.2798 72ZM37.9915 63.9957H48.8892V67.3565H37.9915V63.9957Z" fill="#3B75AD"/>
</svg>
