<svg width="128" height="128" viewBox="0 0 128 128" fill="none" xmlns="http://www.w3.org/2000/svg">
    <path d="M104 16H24C19.5817 16 16 19.5817 16 24V104C16 108.418 19.5817 112 24 112H104C108.418 112 112 108.418 112 104V24C112 19.5817 108.418 16 104 16Z" fill="white" stroke="#E5E9F0" stroke-width="2"/>
    <path d="M81.1 45H56.4C52.22 45 48.8 48.42 48.8 52.6V79.2001C48.8 83.3801 52.22 86.8001 56.4 86.8001H81.1V88.7001C81.1 91.9301 78.63 94.4001 75.4 94.4001H45C41.77 94.4001 39.3 91.9301 39.3 88.7001V45C39.3 41.77 41.77 39.3 45 39.3H75.4C78.63 39.3 81.1 41.77 81.1 45Z" fill="#A9CFFF"/>
    <path d="M81.2644 46.0962L60.7115 65.7356L66.8774 71.6274L93.5962 46.0962H81.2644ZM93.5962 63.7717L82.2921 74.5734L76.1262 68.6815L81.2644 63.7717H93.5962Z" fill="#40C4FF"/>
    <path d="M69.9603 74.5734L76.1262 68.6815L82.2921 74.5734L76.1262 80.4652L69.9603 74.5734Z" fill="#03A9F4"/>
    <path d="M93.5962 85.375H81.2644L76.1262 80.4652L82.2921 74.5734L93.5962 85.375Z" fill="#01579B"/>
    <path d="M76.1262 80.4652L85.375 77.5193L82.2921 74.5734L76.1262 80.4652Z" fill="#084994"/>
</svg>
