<svg width="256" height="256" viewBox="0 0 256 256" fill="none" xmlns="http://www.w3.org/2000/svg">
    <rect x="63" y="63" width="130" height="130" rx="15" fill="url(#paint0_linear_16_7)"/>
    <path d="M144.32 107.8H117.28C112.704 107.8 108.96 111.544 108.96 116.12V145.24C108.96 149.816 112.704 153.56 117.28 153.56H144.32V155.64C144.32 159.176 141.616 161.88 138.08 161.88H104.8C101.264 161.88 98.56 159.176 98.56 155.64V107.8C98.56 104.264 101.264 101.56 104.8 101.56H138.08C141.616 101.56 144.32 104.264 144.32 107.8Z" fill="#A9CFFF"/>
    <path d="M144.5 109L122 130.5L128.75 136.95L158 109H144.5ZM158 128.35L145.625 140.175L138.875 133.725L144.5 128.35H158Z" fill="#40C4FF"/>
    <path d="M132.125 140.175L138.875 133.725L145.625 140.175L138.875 146.625L132.125 140.175Z" fill="#03A9F4"/>
    <path d="M158 152H144.5L138.875 146.625L145.625 140.175L158 152Z" fill="#01579B"/>
    <path d="M138.875 146.625L149 143.4L145.625 140.175L138.875 146.625Z" fill="#084994"/>
    <defs>
        <linearGradient id="paint0_linear_16_7" x1="157.267" y1="109.042" x2="177.679" y2="201.249" gradientUnits="userSpaceOnUse">
            <stop stop-color="white"/>
            <stop offset="1" stop-color="#EDD0EA"/>
        </linearGradient>
    </defs>
</svg>
